<!DOCTYPE svg PUBLIC "-//W3C//DTD SVG 1.1//EN" "http://www.w3.org/Graphics/SVG/1.1/DTD/svg11.dtd">
<!-- Uploaded to: SVG Repo, www.svgrepo.com, Transformed by: SVG Repo Mixer Tools -->
<svg version="1.1" id="Layer_1" xmlns="http://www.w3.org/2000/svg" xmlns:xlink="http://www.w3.org/1999/xlink" viewBox="0 0 511.999 511.999" xml:space="preserve" width="800px" height="800px" fill="#ffffff" stroke="#ffffff">
<g id="SVGRepo_bgCarrier" stroke-width="0"/>
<g id="SVGRepo_tracerCarrier" stroke-linecap="round" stroke-linejoin="round" stroke="#ffffff" stroke-width="10.239980000000001"> <path style="fill:#6B6B6B;" d="M14.4,383.656V77.888c0.094-5.385,4.439-9.726,9.824-9.816h463.552 c5.385,0.09,9.73,4.431,9.824,9.816v305.768H14.4z"/> <path d="M497.599,383.656v39.256c-0.094,5.382-4.434,9.722-9.816,9.816H24.223c-5.385-0.09-9.73-4.431-9.824-9.816v-39.256H497.599z "/> <rect x="152.571" y="502.183" style="fill:#333333;" width="206.861" height="9.816"/> <polygon style="fill:#6B6B6B;" points="324.704,502.184 187.295,502.184 197.111,432.728 314.888,432.728 "/> <rect x="34.039" y="87.704" width="443.925" height="276.322"/> <polygon style="fill:#333333;" points="314.888,432.728 197.111,432.728 191.632,471.496 316.648,445.208 "/> <circle style="fill:#FFFFFF;" cx="255.997" cy="256.661" r="83.577"/> <path style="fill:#1b57e4;" d="M248.303,316.152V302.4c-8.591-0.244-17.023-2.377-24.696-6.248l4.36-16.992 c7.389,4.084,15.671,6.281,24.112,6.4c8.28,0,13.944-3.2,13.944-9c0-5.52-4.648-9.008-15.4-12.64 c-15.536-5.224-26.144-12.488-26.144-26.576c0-12.8,9.008-22.8,24.552-25.856v-13.84h14.224v12.8 c7.279,0.114,14.454,1.75,21.064,4.8l-4.208,16.416c-6.512-3.203-13.664-4.894-20.92-4.944c-9.44,0-12.488,4.072-12.488,8.136 c0,4.8,5.088,7.84,17.432,12.488c17.28,6.104,24.256,14.088,24.256,27.2c0,12.928-9.152,24-25.856,26.872v14.808L248.303,316.152z"/> <circle style="fill:#939393;" cx="141.9" cy="83.577" r="83.577"/> <path style="fill:#FFFFFF;" d="M134.199,143.072V129.28c-8.591-0.244-17.023-2.377-24.696-6.248l4.36-16.992 c7.389,4.083,15.671,6.281,24.112,6.4c8.28,0,13.944-3.2,13.944-9c0-5.52-4.648-9.008-15.4-12.64 c-15.528-5.24-26.12-12.504-26.12-26.592c0-12.8,9.008-22.8,24.552-25.856V24.56h14.224v12.8c7.279,0.114,14.454,1.75,21.064,4.8 l-4.208,16.416c-6.514-3.217-13.671-4.918-20.936-4.976c-9.44,0-12.488,4.072-12.488,8.136c0,4.8,5.088,7.84,17.432,12.488 c17.28,6.104,24.256,14.088,24.256,27.2c0,12.928-9.152,24-25.856,26.872v14.808L134.199,143.072z"/> <circle style="fill:#1b57e4;" cx="370.094" cy="83.577" r="83.577"/> <path style="fill:#FFFFFF;" d="M362.4,143.072V129.28c-8.591-0.244-17.023-2.377-24.696-6.248l4.36-16.992 c7.389,4.083,15.671,6.281,24.112,6.4c8.28,0,13.944-3.2,13.944-9c0-5.52-4.648-9.008-15.4-12.64 c-15.536-5.224-26.144-12.488-26.144-26.576c0-12.8,9.008-22.8,24.552-25.856V24.56h14.232v12.8c7.279,0.114,14.454,1.75,21.064,4.8 l-4.208,16.416c-6.511-3.216-13.666-4.917-20.928-4.976c-9.44,0-12.488,4.072-12.488,8.136c0,4.8,5.088,7.84,17.432,12.488 c17.28,6.104,24.256,14.088,24.256,27.2c0,12.928-9.152,24-25.856,26.872v14.808L362.4,143.072z"/> </g>
<g id="SVGRepo_iconCarrier"> <path style="fill:#6B6B6B;" d="M14.4,383.656V77.888c0.094-5.385,4.439-9.726,9.824-9.816h463.552 c5.385,0.09,9.73,4.431,9.824,9.816v305.768H14.4z"/> <path d="M497.599,383.656v39.256c-0.094,5.382-4.434,9.722-9.816,9.816H24.223c-5.385-0.09-9.73-4.431-9.824-9.816v-39.256H497.599z "/> <rect x="152.571" y="502.183" style="fill:#333333;" width="206.861" height="9.816"/> <polygon style="fill:#6B6B6B;" points="324.704,502.184 187.295,502.184 197.111,432.728 314.888,432.728 "/> <rect x="34.039" y="87.704" width="443.925" height="276.322"/> <polygon style="fill:#333333;" points="314.888,432.728 197.111,432.728 191.632,471.496 316.648,445.208 "/> <circle style="fill:#FFFFFF;" cx="255.997" cy="256.661" r="83.577"/> <path style="fill:#1b57e4;" d="M248.303,316.152V302.4c-8.591-0.244-17.023-2.377-24.696-6.248l4.36-16.992 c7.389,4.084,15.671,6.281,24.112,6.4c8.28,0,13.944-3.2,13.944-9c0-5.52-4.648-9.008-15.4-12.64 c-15.536-5.224-26.144-12.488-26.144-26.576c0-12.8,9.008-22.8,24.552-25.856v-13.84h14.224v12.8 c7.279,0.114,14.454,1.75,21.064,4.8l-4.208,16.416c-6.512-3.203-13.664-4.894-20.92-4.944c-9.44,0-12.488,4.072-12.488,8.136 c0,4.8,5.088,7.84,17.432,12.488c17.28,6.104,24.256,14.088,24.256,27.2c0,12.928-9.152,24-25.856,26.872v14.808L248.303,316.152z"/> <circle style="fill:#939393;" cx="141.9" cy="83.577" r="83.577"/> <path style="fill:#FFFFFF;" d="M134.199,143.072V129.28c-8.591-0.244-17.023-2.377-24.696-6.248l4.36-16.992 c7.389,4.083,15.671,6.281,24.112,6.4c8.28,0,13.944-3.2,13.944-9c0-5.52-4.648-9.008-15.4-12.64 c-15.528-5.24-26.12-12.504-26.12-26.592c0-12.8,9.008-22.8,24.552-25.856V24.56h14.224v12.8c7.279,0.114,14.454,1.75,21.064,4.8 l-4.208,16.416c-6.514-3.217-13.671-4.918-20.936-4.976c-9.44,0-12.488,4.072-12.488,8.136c0,4.8,5.088,7.84,17.432,12.488 c17.28,6.104,24.256,14.088,24.256,27.2c0,12.928-9.152,24-25.856,26.872v14.808L134.199,143.072z"/> <circle style="fill:#1b57e4;" cx="370.094" cy="83.577" r="83.577"/> <path style="fill:#FFFFFF;" d="M362.4,143.072V129.28c-8.591-0.244-17.023-2.377-24.696-6.248l4.36-16.992 c7.389,4.083,15.671,6.281,24.112,6.4c8.28,0,13.944-3.2,13.944-9c0-5.52-4.648-9.008-15.4-12.64 c-15.536-5.224-26.144-12.488-26.144-26.576c0-12.8,9.008-22.8,24.552-25.856V24.56h14.232v12.8c7.279,0.114,14.454,1.75,21.064,4.8 l-4.208,16.416c-6.511-3.216-13.666-4.917-20.928-4.976c-9.44,0-12.488,4.072-12.488,8.136c0,4.8,5.088,7.84,17.432,12.488 c17.28,6.104,24.256,14.088,24.256,27.2c0,12.928-9.152,24-25.856,26.872v14.808L362.4,143.072z"/> </g>
</svg>